# xmcd
#
# Track frame offsets: 
#        150
#        16667
#        33285
#        62072
#        73507
#        88707
#        105130
#        127757
#        144897
#        165742
#
# Disc length: 2371 seconds
#
# Revision: 6
# Processed by: cddbd v1.5.2PL0 Copyright (c) Steve Scherf et al.
# Submitted via: ExactAudioCopyFreeDBPlugin 1.0
#
DISCID=6d09410a
DTITLE=James Cotton - Folha Soul and Blues
DYEAR=2015
DGENRE=Blues
TTITLE0=Diggin' My Potatoes
TTITLE1=Ying Yang
TTITLE2=23 Hours Too Long
TTITLE3=No More Doggin'
TTITLE4=No Cuttin' Loose
TTITLE5=Ain't Doin' Too Bad
TTITLE6=Sunny Road
TTITLE7=Superharp
TTITLE8=Easy Loving
TTITLE9=High Compression
EXTD=
EXTT0=
EXTT1=
EXTT2=
EXTT3=
EXTT4=
EXTT5=
EXTT6=
EXTT7=
EXTT8=
EXTT9=
PLAYORDER=
